<svg width="122" height="68" viewBox="0 0 122 68" fill="none" xmlns="http://www.w3.org/2000/svg">
<path d="M0 31.314L11.1578 43.7632V49.4816L5.71377 41.7111V39.9327L0 33.4755V43.6811L16.7735 67.8681V41.1639L5.66472 28.7147V24.9936H11.1578V32.5726L16.7735 38.8929L16.7244 18.7554H0" fill="white"/>
<path d="M19.2256 18.7554V67.8681L34.0127 46.554L26.8766 46.5813L24.8413 49.5363V25.021H30.4079V32.9557H35.9745V18.7554H19.2256Z" fill="white"/>
<path d="M35.9747 16.2384C22.757 16.2384 13.2422 16.2384 0 16.2384L0.171658 15.1166C2.42774 7.23663 7.13608 2.20224 14.4193 0.53323C23.7624 -1.62828 33.032 4.77416 35.6804 15.0071C35.7294 15.1713 35.754 15.3354 35.8275 15.5543M30.2854 15.527C30.3099 15.1713 30.3835 14.8703 30.3835 14.5693C30.31 12.9824 30.2119 11.3681 30.0892 9.78119C30.0647 9.53494 29.9176 9.26134 29.7459 9.06981C28.3481 7.45552 26.7296 6.19692 25.0131 5.07513C24.3019 4.60999 23.6398 4.41847 22.806 4.58263C21.2121 4.91096 19.6181 5.26665 18.1713 6.11484C17.9751 6.22428 17.8525 6.33373 17.8279 6.63469C17.8034 8.7962 17.7544 10.9303 17.6808 13.0919C17.6808 13.3655 17.7544 13.5296 17.9506 13.6664C18.6862 14.2137 19.4219 14.7882 20.1576 15.3081C20.3538 15.4449 20.599 15.527 20.8197 15.527C23.8115 15.5543 26.8277 15.527 29.8195 15.527C29.9666 15.527 30.1138 15.527 30.2854 15.527ZM4.92904 15.4996C5.02713 15.527 5.07618 15.527 5.12523 15.527C8.06794 15.527 11.0107 15.527 13.9534 15.527C14.1005 15.527 14.2722 15.4449 14.4193 15.3354C15.204 14.7882 15.9887 14.2136 16.7489 13.6117C16.8961 13.5023 17.0432 13.256 17.0432 13.0645C17.1168 10.903 17.1413 8.76884 17.1903 6.60734C17.1903 6.44317 17.0677 6.22429 16.9451 6.1422C15.7435 5.3761 14.4683 4.85624 13.1196 4.55527C12.2123 4.36375 11.3785 4.47319 10.5202 4.99304C8.82814 6.06012 7.18512 7.18191 5.8609 8.7962C5.6402 9.06981 5.44402 9.39814 5.37045 9.75383C4.92904 11.6417 4.83095 13.5296 4.92904 15.4996ZM32.6886 9.50758C30.2854 5.70443 27.1711 3.10515 23.2474 1.70974C23.5662 2.31168 23.836 2.91362 24.1548 3.46084C24.2529 3.65237 24.4 3.84389 24.5471 3.95334C26.6806 5.18457 28.6179 6.71678 30.2854 8.63204C30.3835 8.74148 30.5061 8.85093 30.6287 8.87829C31.2909 9.12453 31.9775 9.2887 32.6886 9.50758ZM12.3594 1.87391C9.80904 2.33904 4.36502 6.79886 3.5803 9.06981C4.53668 9.04245 5.24784 8.54996 5.93447 7.75649C7.33226 6.1422 9.09789 5.0204 10.888 4.03541C11.0107 3.95333 11.1578 3.89861 11.2314 3.78917C11.6237 3.15987 12.0161 2.50321 12.3594 1.87391Z" fill="white"/>
<path d="M48.6777 20.9443L50.615 18.8375C51.1055 19.6584 52.0373 20.1509 53.0428 20.1509C53.7294 20.1509 54.3915 19.8773 54.3915 19.33C54.3915 18.646 53.1654 18.0441 51.9883 17.4421C50.4679 16.7034 49.1682 15.609 49.1682 13.5843C49.1682 11.2586 51.1545 9.61694 53.4351 9.61694C55.2743 9.61694 56.6966 10.5746 57.1626 11.9153L55.3234 13.8852C54.9555 13.1739 54.0482 12.8729 53.4596 12.8729C52.7975 12.8729 52.3316 13.2559 52.3316 13.6937C52.3316 14.2956 53.1899 14.5145 54.4896 15.1165C56.3778 15.992 57.604 17.278 57.604 19.248C57.604 21.7925 55.4705 23.3794 53.0673 23.3794C51.081 23.4068 49.2908 22.4218 48.6777 20.9443Z" fill="white"/>
<path d="M59.6641 16.5118C59.6641 12.4897 62.5332 9.42529 66.2606 9.42529C69.9881 9.42529 72.8572 12.4897 72.8572 16.5118C72.8572 20.5064 69.9881 23.5435 66.2606 23.5435C62.5087 23.5435 59.6641 20.5064 59.6641 16.5118ZM69.6448 16.5118C69.6448 14.4323 68.1734 12.8454 66.2852 12.8454C64.3969 12.8454 62.9256 14.4323 62.9256 16.5118C62.9256 18.5638 64.3969 20.1507 66.2852 20.1507C68.1734 20.1507 69.6448 18.5638 69.6448 16.5118Z" fill="white"/>
<path d="M75.0391 16.5122C75.0391 12.5449 77.9082 9.48047 81.6602 9.48047C83.2051 9.50783 84.8726 10.2739 86.0988 11.5052L84.2596 14.1318C83.5239 13.3931 82.543 12.9006 81.6602 12.9006C79.821 12.9006 78.2761 14.4601 78.2761 16.5396C78.2761 18.619 79.8945 20.1512 81.6111 20.1512C82.6166 20.1512 83.5239 19.6313 84.2841 18.8379L86.0988 21.5466C84.9462 22.7231 83.4258 23.5166 81.5866 23.5166C78.2025 23.5166 75.0391 20.7258 75.0391 16.5122Z" fill="white"/>
<path d="M87.5459 16.5122C87.5459 12.5449 90.415 9.48047 94.167 9.48047C95.7119 9.50783 97.3795 10.2739 98.6056 11.5052L96.7664 14.1318C96.0307 13.3931 95.0498 12.9006 94.167 12.9006C92.3278 12.9006 90.7829 14.4601 90.7829 16.5396C90.7829 18.619 92.4014 20.1512 94.118 20.1512C95.1234 20.1512 96.0307 19.6313 96.7909 18.8379L98.6056 21.5466C97.453 22.7231 95.9326 23.5166 94.0934 23.5166C90.7093 23.5166 87.5459 20.7258 87.5459 16.5122Z" fill="white"/>
<path d="M104.246 13.1193V14.9798H108.072V17.9621H104.246V19.8774H108.881V23.2154H101.083V9.80859H108.881V13.1193H104.246Z" fill="white"/>
<path d="M118.175 23.2154L114.962 17.3875V23.2154H111.775L111.75 9.80859H116.311C118.911 9.80859 120.774 11.7512 120.774 14.159C120.774 15.828 119.867 17.2234 118.69 17.8253L121.927 23.2154H118.175ZM114.962 15.6912H116.262C116.949 15.6912 117.562 15.1713 117.562 14.3505C117.562 13.5297 116.924 13.0098 116.262 13.0098H114.962V15.6912Z" fill="white"/>
<path d="M48.874 35.2265C48.874 30.6572 52.1846 27.155 56.5006 27.155C58.2907 27.1824 60.2035 28.0579 61.6013 29.4807L59.4923 32.5178C58.634 31.6696 57.5305 31.095 56.5006 31.095C54.3671 31.095 52.6015 32.9008 52.6015 35.2538C52.6015 37.6342 54.4652 39.4127 56.427 39.4127C57.5795 39.4127 58.634 38.8108 59.5168 37.9078L61.6013 41.027C60.277 42.3677 58.5114 43.2979 56.427 43.2979C52.5034 43.2979 48.874 40.0693 48.874 35.2265Z" fill="white"/>
<path d="M73.2987 41.1639H68.1245L67.4133 42.9697H63.3916L69.8165 27.3467H71.5576L77.9826 42.9697H73.9608L73.2987 41.1639ZM72.1217 38.1542L70.6993 34.4879L69.277 38.1542H72.1217Z" fill="white"/>
<path d="M95.4915 27.3738V42.9421H91.8131V36.8406L88.0856 42.6959H88.0611L84.3337 36.8406V42.9421H80.6553V27.3738H82.1266L88.0611 36.4576L93.9956 27.3738H95.4915Z" fill="white"/>
<path d="M99.1699 27.5378H104.393C107.238 27.5378 109.617 29.9182 109.617 32.9553C109.617 35.9376 107.287 38.4275 104.393 38.4275H102.848V42.9694H99.1699V27.5378ZM106.061 32.9553C106.061 32.025 105.35 31.3136 104.369 31.3136H102.824V34.6243H104.369C105.374 34.6517 106.061 33.8856 106.061 32.9553Z" fill="white"/>
<path d="M111.726 40.3429L113.957 37.9078C114.521 38.8654 115.6 39.44 116.753 39.44C117.537 39.44 118.298 39.1116 118.298 38.4823C118.298 37.6889 116.875 36.9775 115.527 36.3208C113.785 35.4726 112.265 34.1867 112.265 31.861C112.265 29.1796 114.546 27.2917 117.17 27.2917C119.279 27.2917 120.922 28.4135 121.461 29.9184L119.352 32.1893C118.935 31.3685 117.881 31.0128 117.219 31.0128C116.458 31.0128 115.919 31.4506 115.919 31.9705C115.919 32.6818 116.9 32.9007 118.396 33.6121C120.554 34.6245 122.001 36.1019 122.001 38.3729C122.001 41.3005 119.548 43.1337 116.777 43.1337C114.497 43.161 112.412 42.0392 111.726 40.3429Z" fill="white"/>
<path d="M49.6094 48.3875H52.3804C54.0725 48.3875 55.4458 49.8102 55.4458 51.5339C55.4458 53.203 54.0725 54.5436 52.3804 54.5436H50.5903V58.1553H49.6094V48.3875ZM54.4648 51.5066C54.4648 50.3848 53.533 49.4545 52.3804 49.4545H50.5903V53.4218H52.3804C53.533 53.4492 54.4648 52.5737 54.4648 51.5066Z" fill="white"/>
<path d="M71.7041 58.1277L69.2519 54.3245H67.6088V58.1277H66.6279V48.3599H69.2028C70.8213 48.3599 72.1455 49.7553 72.1455 51.479C72.1455 52.7376 71.3608 53.832 70.3063 54.1877L72.9057 58.1277H71.7041ZM69.2519 53.3943C70.2818 53.3943 71.1401 52.5187 71.1401 51.4516C71.1401 50.3298 70.2818 49.4543 69.2519 49.4543H67.6334V53.3943H69.2519Z" fill="white"/>
<path d="M83.4746 53.2575C83.4746 50.4941 85.4855 48.2231 87.9622 48.2231C90.439 48.2231 92.4499 50.4941 92.4499 53.2575C92.4499 55.9936 90.4145 58.2646 87.9377 58.2646C85.51 58.2646 83.4746 56.021 83.4746 53.2575ZM91.469 53.2575C91.469 51.096 89.8995 49.3449 87.9622 49.3449C86.0495 49.3449 84.48 51.096 84.48 53.2575C84.48 55.3917 86.0495 57.1428 87.9622 57.1428C89.8995 57.1428 91.469 55.3917 91.469 53.2575Z" fill="white"/>
</svg>
